<svg xmlns="http://www.w3.org/2000/svg" width="1000" height="750" viewBox="0 0 1000 750" fill="none">
<defs><linearGradient id="bg" x2="1" y2="1"><stop stop-color="#111c34"/><stop offset="1" stop-color="#080e1c"/></linearGradient><linearGradient id="floor" x2="0" y2="1"><stop stop-color="#283962"/><stop offset="1" stop-color="#0a1324"/></linearGradient><linearGradient id="screen" x2="1" y2="1"><stop stop-color="#2b4ea3"/><stop offset=".5" stop-color="#627ebc"/><stop offset="1" stop-color="#383f81"/></linearGradient><linearGradient id="beam" x2="0" y2="1"><stop stop-color="#aac9ff" stop-opacity=".17"/><stop offset="1" stop-color="#aac9ff" stop-opacity="0"/></linearGradient><radialGradient id="glow"><stop stop-color="#6c8cff" stop-opacity=".2"/><stop offset="1" stop-color="#6c8cff" stop-opacity="0"/></radialGradient><pattern id="grid" width="45" height="35" patternUnits="userSpaceOnUse"><path d="M45 0H0V35" stroke="#6881b0" stroke-opacity=".08"/></pattern></defs>
<path fill="url(#bg)" d="M0 0h1000v750H0z"/><ellipse cx="500" cy="320" rx="460" ry="300" fill="url(#glow)"/><path d="M0 550L500 350l500 200v200H0z" fill="url(#floor)"/><path d="M0 0h1000v750H0z" fill="url(#grid)"/>
<g stroke="#61749b" stroke-opacity=".18"><path d="M500 350L-200 750M500 350L50 750M500 350l-200 400M500 350v400M500 350l200 400M500 350l450 400M500 350l700 400M0 550h1000M0 625h1000M0 705h1000"/></g>
<path d="M120 465L500 290l380 175-380 210z" fill="#101c35" stroke="#4b639c"/><path d="M120 465v34l380 209v-33z" fill="#0a142a"/><path d="M880 465v34L500 708v-33z" fill="#172440"/><path d="M200 430L500 297l300 133-300 161z" fill="#243659" stroke="#768dbe" stroke-opacity=".5"/><path d="M205 443l295 158 295-158" stroke="#7eabff" stroke-width="3"/>
<path d="M310 387V188l190-72 190 72v199L500 483z" fill="#0b152c" stroke="#486494" stroke-width="3"/><path d="M329 201l171-63 171 63v165l-171 85-171-85z" fill="url(#screen)"/><path d="M348 216l152-56 152 56v134l-152 75-152-75z" stroke="#9cc9ff" stroke-opacity=".4"/>
<path d="M487 190l-70 119 19 20-19 34 70 47V190zm26 0 70 119-19 20 19 34-70 47V190z" fill="#bddeff" fill-opacity=".85"/><path d="M482 208l-51 101 19 20-18 33 50 32V208zm36 0 51 101-19 20 18 33-50 32V208z" fill="#4b68a6"/>
<g fill="#12233f" stroke="#5474aa"><path d="M173 358l87-40v107l-87 44z"/><path d="M740 318l87 40v111l-87-44z"/></g><g fill="#7faeff" opacity=".7"><path d="M187 365l7-3v76l-7 4zM206 356l7-3v76l-7 4zM225 347l7-3v76l-7 4zM767 347l7 3v76l-7-3zM787 356l7 3v76l-7-3zM807 365l7 3v76l-7-3z"/></g>
<g fill="#13233e" stroke="#556a91"><path d="M280 469l75-36 97 46-76 39zM548 479l97-46 75 36-96 49z"/></g><path d="M280 469v22l96 51v-24zm440 0v22l-96 51v-24z" fill="#080f20"/><g fill="#7faeff"><path d="M302 457v-28l40-19v28zM353 481v-29l40-19v28zM606 460v-28l40 19v29zM658 436v-27l40 19v29z"/></g>
<g fill="url(#beam)"><path d="M240 102l-90 375 200-22zM760 102L650 455l200 22zM402 63L300 382l170 35zM598 63l-68 354 170-35z"/></g><g stroke="#536c99" stroke-width="2"><path d="M120 150l380-120 380 120M120 150v315M880 150v315M120 170L500 50l380 120"/></g><g fill="#bad5ff"><ellipse cx="240" cy="113" rx="8" ry="4"/><ellipse cx="402" cy="63" rx="8" ry="4"/><ellipse cx="598" cy="63" rx="8" ry="4"/><ellipse cx="760" cy="113" rx="8" ry="4"/></g>
</svg>
